<?xml version="1.0" encoding="UTF-8"?><svg id="Layer_1" xmlns="http://www.w3.org/2000/svg" viewBox="0 0 1075.17 1047.22"><defs><style>.cls-1{fill:#fff;}.cls-2{fill:#ea2328;}.cls-3{fill:#e88aa4;}.cls-4{fill:#471e5a;}.cls-5{fill:#cbe2f2;}.cls-6{fill:#faa42b;}.cls-7{fill:#008d4b;}.cls-8{fill:#fab81b;}.cls-9{fill:#fba12f;}.cls-10{fill:#f67521;}.cls-11{fill:#7f4037;}.cls-12{fill:#1a82cb;}</style></defs><path class="cls-5" d="m413.86,1047.22l-5.52-.1c-88.2-9.69-160.06-42.22-213.58-96.68-15.94-16.7-30.24-35.16-42.72-55.11-.4.01-.81.02-1.22.02-13.18,0-25.44-4.67-34.52-13.15-69.74-62.7-106.78-174.5-95.4-286.65-5.46-5.18-9.65-11.56-12.15-18.61-8.48-22.64-10.89-55.59-6.8-92.8,4.34-38.85,15.78-79.79,33.1-118.44,26.78-60.09,80.32-141.63,184.57-197.14h0c-27.46-40.5-34.06-91.81-17.22-133.67C211.25,13.62,231.62,0,254.35,0c5.66,0,11.48.98,17.28,2.92,80.11,26.43,137.08,38.23,184.68,38.23,24.44,0,45.84-2.82,73.86-9.73l.46-.11c2.99-.64,6.24-1.62,9.68-2.65,2.55-.77,5.15-1.54,7.82-2.25l1.24-.35c26.26-7.45,58.93-16.73,113.13-16.73h.44c18.98,0,38.84,3.94,52.16,7.24,14.41,3.62,28.9,8.47,43.73,13.54,26.42,8.94,56.41,19.09,80.61,19.09h7.19c58.2,0,112.47,23.71,139.65,37.84,16.9,8.46,33.56,18.65,47.96,29.34,20.47,15.5,30.77,27.77,35.67,42.44l.12.37c2.06,6.71,3.5,14.93,4.42,25.12.9,8.27-.28,16.66-3.34,24.29,3.34,11.24,4.65,23.43,3.8,35.66l-.09.88c-2.65,20.94-7.97,41.63-15.8,61.49l-.22.54c-.87,2.13-1.85,4.55-3.28,7.44l-.87,1.71c-6.13,12.66-16.96,27.43-19.41,30.57-11.34,35.33-31.26,60.03-59.31,73.54,13.27,21.43,19.48,40.54,24.69,64.1,7.64,12.55,12.66,24.22,15.73,36.51l.23.94c.15.52.3,1.12.41,1.79,2.44,11.31,3.63,22.09,3.63,32.94,0,48.75-25.03,93.1-66.94,118.65-21.12,13.14-46,20.12-71.84,20.12-30.85,0-61.28-10.53-85.68-29.64l-1.55-1.39-1.06-1.08c-.27-.26-.53-.52-.79-.78-22.13-17.64-50.52-27.42-84.39-29.07-20-1.11-63.33,8.09-94.91,37.53-24.9,23.21-37.79,54.47-38.34,92.92-1.26,78.49,53.56,115.82,64.56,122.5,11.97,7.27,33.94,15.78,48.56,16.85l3.17.2c14.06.91,35.29,2.28,56.61-5.28h0c11.3-4,22.75,5.57,20.8,17.4h0c-3.51,21.33-30.1,127.76-209.87,127.76-36.02,0-72.84-4.49-107.19-13.02-9.55,10.59-23.22,16.82-37.94,16.82Zm-2.93-31.5h2.93c7.36,0,14.03-4.05,17.43-10.58l5.89-11.33,12.3,3.41c34.64,9.62,72.51,14.7,109.51,14.7,114.43,0,155.93-46.43,170.88-77.33-16.18,1.96-30.47,1.04-40.46.39l-3.22-.2c-20.72-1.52-47.23-11.89-62.82-21.36-13.58-8.25-81.24-54.26-79.71-149.9.67-47.33,16.94-86.2,48.36-115.49,39.01-36.37,91.94-47.41,118.03-45.95,40.92,1.99,75.69,14.3,103.23,36.58l3.13,3.01c18.75,14.41,41.95,22.33,65.46,22.33,19.94,0,39.07-5.34,55.32-15.45,32.58-19.86,51.96-54.16,51.96-91.83,0-8.66-.92-16.97-2.88-26.12-.24-.74-.51-1.7-.69-2.84-2.47-9.42-6.65-18.61-13.08-28.85l-1.48-2.35-.58-2.72c-5.48-25.47-11.51-43.59-27.59-66.36l-.26-.39c-.48-.73-1.74-2.15-3.71-3.78l-33.74-27.89h44.64c2.73,0,5.47-.5,8.36-1.52,23.35-9.59,39.13-29.27,48.23-60.15l1.6-5.44,3.81-2.56c3.11-4.24,10.58-14.89,14.61-23.25l1.01-2c.85-1.71,1.51-3.33,2.27-5.21l.15-.38c6.74-17.11,11.38-35.08,13.73-53.27.64-10.01-.77-19.84-4.09-28.46l-2.77-7.19,3.98-6.6c2.08-3.45,2.97-7.62,2.5-11.74l-.04-.36c-.7-7.84-1.74-14.11-3.11-18.65-2.73-7.95-10.11-16.05-24.64-27.05-12.84-9.54-27.89-18.73-43.38-26.49-24.84-12.92-73.84-34.4-125.33-34.4h-7.19c-29.39,0-61.99-11.03-90.76-20.77-14.22-4.86-28.04-9.49-41.22-12.8-11.56-2.87-28.72-6.3-44.53-6.3h-.44c-49.81,0-80.15,8.61-104.52,15.53l-1.49.42c-2.59.69-4.87,1.38-7.12,2.05-3.81,1.14-7.74,2.32-11.87,3.22-30.16,7.43-54.45,10.59-81.18,10.59-51.1,0-111.11-12.28-194.6-39.83-2.6-.87-5.13-1.32-7.36-1.32-10.13,0-18.87,5.87-22.8,15.32-12.84,31.92-7.57,71.67,13.81,103.56,3.32,4.98,6.69,9.35,10.03,13.02l14.26,15.66-19.11,9.15c-107.09,51.27-160.66,131.8-186.74,190.34-16.01,35.74-26.57,73.44-30.55,109.06-3.52,31.97-1.69,60.55,5.03,78.39l.13.35c1.24,3.54,3.81,6.63,7.25,8.7l8.77,5.28-1.27,10.16c-13.11,105.21,20.03,210.6,84.42,268.49,3.44,3.21,8.07,4.87,13.24,4.87,1.81,0,3.37-.21,5.07-.69l11.71-3.28,6.14,10.49c12.48,21.33,27.16,40.9,43.64,58.16,47.97,48.81,113.15,78.2,193.55,87.19Z"/><path class="cls-1" d="m1054.12,207.52c3.83-6.36,5.53-13.99,4.66-21.63-.83-9.36-2.11-16.55-3.8-22.07-3.83-11.47-12.74-21.63-30.12-34.79-13.16-9.77-28.88-19.52-45.84-28.01-31.82-16.55-81.05-36.07-132.38-36.07h-7.19c-26.74,0-58.14-10.61-85.71-19.94-14.85-5.08-28.85-9.75-42.42-13.16-10.19-2.53-29.71-6.77-48.37-6.77h-.44c-53.03,0-84.85,9.33-110.31,16.55-6.36,1.69-12.3,3.8-18.24,5.08-29.26,7.22-52.2,10.19-77.63,10.19-49.23,0-107.37-11.88-189.66-39.04-3.83-1.28-8.08-2.11-12.3-2.11-16.55,0-30.99,9.75-37.34,25.02-14.85,36.93-8.91,82.32,15.27,118.39,3.39,5.08,7.22,10.19,11.47,14.85-109.89,52.61-166.34,135.33-194.33,198.13-16.55,36.93-27.6,75.94-31.82,113.73-3.83,34.79-1.72,65.33,5.94,85.68,2.53,7.22,7.64,13.16,13.99,16.99-14.85,119.22,26.74,225.7,89.51,282.15,6.36,5.94,14.85,8.91,23.77,8.91,3.39,0,6.36-.44,9.33-1.28,13.16,22.49,28.43,42.84,45.84,61.08,50.89,51.78,119.22,82.74,204.07,92.07h3.8c13.58,0,25.46-7.64,31.4-19.07,38.2,10.61,78.07,15.27,113.73,15.27,164.2,0,190.49-91.24,194.33-114.56-26.32,9.33-52.2,6.77-66.19,5.94-17.41-1.28-41.59-10.61-55.59-19.1-21.66-13.16-73.41-56.42-72.13-136.19,1.69-119.22,112-148.07,149.76-145.96,34.79,1.69,67.47,11.47,94.21,33.1.42.42.83.86,1.28,1.28l1.25,1.28c21.66,16.96,48.81,26.29,75.96,26.29,22.49,0,44.53-5.94,63.64-17.83,36.9-22.49,59.39-61.94,59.39-105.2,0-10.61-1.25-20.38-3.39-30.12,0-.44-.42-.86-.42-1.72-2.97-11.86-8.08-22.91-15.27-34.35-5.94-27.6-12.74-47.53-30.12-72.13-1.69-2.55-4.25-5.11-6.8-7.22h.86c4.66,0,9.33-.86,13.99-2.55,38.62-15.69,52.2-51.75,57.7-70.41l1.28-.86c1.69-2.11,12.3-16.55,17.83-28.01l.86-1.69c1.25-2.53,2.11-4.66,2.97-6.77,7.19-18.24,12.3-37.76,14.83-57.7.86-12.33-.83-24.63-5.08-35.65"/><path d="m152.97,846.4c-.09.03-.19.06-.28.09.16.16.28.28.44.41-.06-.16-.09-.35-.16-.5Z"/><path class="cls-4" d="m783.2,323.34c-2.87,1.73-5.86,3.62-8.91,5.7-4.63-1.54-9.26-3.02-13.89-4.47,7.21-1.95,14.55-3.31,21.92-4.19,1.73,0,2.14,2.08.88,2.96Z"/><path class="cls-12" d="m897.93,376.92c-4.06,2.52-8.51,4.76-13.32,6.65-2.55.88-5.1-1.67-4.66-4.66.5-3.09.98-6.21,1.35-9.32,5.54,2.39,11.09,4.82,16.63,7.34Z"/><path class="cls-3" d="m307.01,66.23c-20.82.98-41.55,2.36-62.18,4.22.88-5.83,2.39-11.53,4.6-16.98.88-2.55,4.25-3.78,6.8-2.96,18.08,5.98,34.97,11.21,50.78,15.72Z"/><path class="cls-3" d="m1025.03,188.83c0,.85-1.26,1.7-2.11,1.29-15.69-6.39-38.18-19.97-51.76-28.04-2.14-1.26-4.66,1.29-3.43,3.4,7.65,11.47,22.08,25.45,38.62,35.66,3.53,2.24,6.65,4.95,9.23,8.06-142.98-68.89-296.77-114.13-456.44-133.63,24.95-7.21,53.61-16.16,103.54-16.16,14.02.41,30.56,3.4,40.32,5.95,38.59,9.32,91.67,35.19,140.02,33.93,82.31-1.7,174.8,60.67,179.49,75.1,1.26,2.96,2.11,8.06,2.52,14.43Z"/><path class="cls-11" d="m1015.58,209.21c-142.98-68.89-296.77-114.13-456.44-133.63-5.76,1.67-11.34,3.28-16.95,4.63-61.87,15.28-120.8,18.77-235.18-13.99-20.82.98-41.55,2.36-62.18,4.22-5.58,35.47,12.1,75.95,45.55,97.65,28.92-1.83,58.02-2.74,87.26-2.74,218.99,0,430.14,51,619.87,147.42,3.21-4.57,7.91-11.72,10.55-17.01,0,0,0-.47.41-.47,0-.41.47-.82.47-1.23.82-1.7,1.26-2.99,2.11-4.66,6.77-16.57,10.58-33.55,12.73-49.64,1.83-11.66-1.45-22.43-8.19-30.56Zm-363.08-72.99c-3.81-9.77-3.81-19.53,2.14-27.15,3.81-5.07-4.25-11.03-19.53-5.51,3.81-2.99,8.47-4.66,13.58-5.51,4.66-.85,9.77-.44,14.87.41,9.73,1.7,19.06,5.1,26.71,11.03,6.8,4.25,13.58,9.77,21.64,14.46-.44,6.77-2.55,13.58-6.8,21.2-16.95-5.51-32.23-11.03-52.61-8.91Zm57.71,10.62c5.95-3.84,11.03-9.32,14.84-16.57.44,0,1.29.44,1.73.44,2.96.85,5.92,1.67,9.32,2.55,2.96.41,6.36.85,9.32.85s6.36-.44,9.73-.44c-7.18,4.25-24.16,18.68-44.95,13.17Z"/><path class="cls-4" d="m997.5,312.78c-1.39,2.02-2.52,3.53-3.02,4.19,0,.41-.41.41-.41.82,0-.41-.41-.41-.41-.41-.88.41-1.73,1.29-2.99,1.7-2.96,9.32-8.47,45.39-40.29,58.56-1.7.85-3.4-.85-2.99-2.96,2.55-16.98,2.99-36.51,0-47.98-.41-.41,0-1.26.44-1.26,1.26.44,10.99,0,21.64-1.26.41,0,.41-.44,0-.44-12.32.44-24.63-1.29-31-2.52-6.14,18.36-17.45,41.39-40.54,55.69-5.54-2.52-11.09-4.95-16.63-7.34,2.61-20.16,2.83-40.95-.09-56.01-42.9-7.47-98.09-16.73-141.41,4.73-116.05-34.37-237.73-52.13-362.16-52.13-78.37,0-155.68,7.06-231.15,20.85,35.12-37.77,81.56-71.41,142-94.79,4.25-.41,8.47,0,12.29,1.26,20.38,5.95,53.05,2.11,68.29-10.17,1.29-.85.47-2.55-.82-2.11-30.78,6.46-57.33.22-77.87-13.1,28.92-1.83,58.02-2.74,87.26-2.74,218.99,0,430.14,51,619.87,147.42Z"/><path class="cls-12" d="m774.29,329.04c-24.22,16.51-53.14,44.7-60.67,84.26-.22.72-.47,1.45-.63,2.24-107.42-32-220.13-48.57-335.36-48.57-104.55,0-207.05,13.64-305.4,40.1,15.15-39.97,38.97-82.09,74.25-120.05,75.48-13.8,152.78-20.85,231.15-20.85,124.43,0,246.11,17.77,362.16,52.13-15.78,7.78-29.99,19.69-41.45,37.27-5.1,7.65-8.91,15.72-11.47,23.34,19.85-30.62,45.86-46.84,73.52-54.34,4.63,1.45,9.26,2.93,13.89,4.47Z"/><path class="cls-12" d="m908.57,493.85c-12.35-6.33-24.79-12.41-37.36-18.24,2.36-11.15,4.19-23.03,5.32-34.34,0-3.37,2.96-5.48,4.66-3.81,17.55,14.81,24.7,36.79,27.37,56.39Z"/><path class="cls-12" d="m963.76,523.93c-16.35-9.51-32.92-18.62-49.71-27.28.03-1.17.25-2.52.66-4.03,2.14-8.91,4.25-20.35,5.51-27.15,1.7-7.65,2.55-16.1,2.99-25.45.41-2.11,2.55-2.99,3.78-1.26,15.31,22.05,20.38,38.18,25.92,66.15,4.28,6.02,8,12.22,10.84,19.03Z"/><path class="cls-7" d="m969.87,557.1c0,27.53-12.69,52.23-32.6,68.55-166.61-102.88-358.92-157.88-559.64-157.88-4.03,0-8.03.03-12.03.09-6.05-18.99-9.99-40.1-11.34-63.47-1.61,22.81.13,44.01,4.5,63.57-90.88,1.54-179.9,14.4-265.46,37.86,5.36-14.4,11.72-28.89,19.09-43.34-12.19,12.19-25.17,27.06-36.6,48.32-8.57,2.49-17.14,5.1-25.64,7.84-.09-29.96,6.17-69.58,22.08-111.57,98.34-26.46,200.85-40.1,305.4-40.1,115.23,0,227.94,16.57,335.36,48.57-.13.6-.22,1.26-.22,1.98-2.11,27.59-3.81,42.84,33.08,64.07,1.7.85.88,3.37-.82,2.96-48.38-7.62-56.45-22.49-64.92-39.03-.44-1.29-2.14-.85-2.14.41,2.96,33.11,32.7,39.91,91.23,46.27,33.96,3.81,65.77,16.13,90.82,20.79v-.88c4.28-9.07,8.19-22.18,11.21-36.51,12.57,5.83,25.01,11.91,37.36,18.24.25,1.73.44,3.43.63,5.13.44,3.81.85,6.8.85,8.47v.44c.85,3.4,19.94,4.22,21.61-.44-6.05-.72-17.83-.82-17.61-10.8,16.79,8.66,33.36,17.77,49.71,27.28,1.42,3.28,2.58,6.68,3.56,10.27v.85c1.7,6.8,2.55,14.02,2.55,22.05Z"/><path class="cls-8" d="m75.79,510.8c-7.31,13.51-13.95,29.64-19.4,49.3-3.87-9.48-6.17-23.78-6.24-41.45,8.51-2.74,17.07-5.36,25.64-7.84Z"/><path class="cls-8" d="m937.27,625.65c-3.09,2.55-6.36,4.88-9.8,6.99-13.61,8.03-28.85,12.73-45.86,12.73-20.79,0-39.85-7.21-54.72-19.09-.85-.85-1.7-1.29-2.55-2.11-31.82-25.45-72.14-40.76-116.27-40.76-26.27,0-51.31,5.95-74.22,15.72-2.08.66-4.16,1.29-6.27,1.86-60.73-16.13-123.39-26.37-187.21-30.43-32.95-22.81-60.1-56.48-74.78-102.69,4-.06,8-.09,12.03-.09,200.72,0,393.03,55,559.64,157.88Z"/><path class="cls-8" d="m417.07,569.36c-13.1-.54-26.24-.79-39.44-.79-106.25,0-209.89,17.01-307.79,49.77,1.76-36.13,9.14-74.09,23.47-112.52,85.56-23.47,174.58-36.32,265.46-37.86,9.32,41.52,30.78,75.57,58.31,101.4Z"/><path class="cls-10" d="m627.59,600.98c-56.83,16.13-130.57,8.88-187.21-30.43,63.82,4.06,126.47,14.3,187.21,30.43Z"/><path class="cls-10" d="m588.87,625.43c-20.35,18.33-35.63,38.65-46.37,59.54-53.77-10.33-108.93-15.59-164.87-15.59-103.07,0-203.4,17.89-297.43,52.16-8.32-31.53-12.25-66.4-10.36-103.2,97.9-32.76,201.54-49.77,307.79-49.77,13.2,0,26.33.25,39.44.79,49.27,46.27,118,66.31,171.8,56.07Z"/><path class="cls-2" d="m522.66,768.82c.16,5.17.47,10.24.98,15.18-47.63-9.17-96.45-13.83-146.01-13.83-73.4,0-145.19,10.24-213.76,30.05-6.43-19.62-11.4-40.45-14.99-62.37-5.13,20.85-6.84,44.32-4.28,68.23-7.4,2.36-14.74,4.82-22.05,7.4-18.24-25.04-33.08-56.35-42.34-91.95,94.03-34.27,194.36-52.16,297.43-52.16,55.95,0,111.1,5.26,164.87,15.59-14.33,27.91-20.57,56.92-19.85,83.85Z"/><path class="cls-6" d="m152.97,846.4c-.09.03-.19.06-.28.09-10.74-9.2-20.88-20.29-30.15-33.01,7.31-2.58,14.65-5.04,22.05-7.4,1.42,13.42,4.16,26.96,8.38,40.32Z"/><path class="cls-9" d="m532.68,827.63c-50.37-10.9-102.28-16.51-155.05-16.51-68.17,0-134.89,9.32-198.71,27.41-5.7-12.19-10.71-24.98-15.06-38.3,68.58-19.81,140.37-30.05,213.76-30.05,49.55,0,98.38,4.66,146.01,13.83,1.48,15.53,4.6,30.08,9.04,43.63Z"/><path d="m556.24,875.51c-57.52-15.47-117.47-23.44-178.61-23.44s-120.8,7.94-178.2,23.31c-7.62-11.59-14.46-23.88-20.51-36.86,63.82-18.08,130.54-27.41,198.71-27.41,52.76,0,104.68,5.61,155.05,16.51,5.8,17.7,13.86,33.71,23.56,47.88Z"/><path class="cls-3" d="m686.46,953.82c-5.2,5.76-11.53,10.84-18.77,15.25-87-44.57-185.57-69.74-290.06-69.74-50.02,0-98.69,5.76-145.38,16.7-12.22-12.35-23.15-25.92-32.82-40.64,57.39-15.37,117.18-23.31,178.2-23.31s121.09,7.97,178.61,23.44c15.62,22.93,35.44,41.11,56.8,54.12,17.42,10.21,48.38,22.9,73.43,24.19Z"/><path d="m350.82,923.71c8.1,23.34,32.29,58.12,66.62,73.4-79.89-8.06-141.03-36.54-185.19-81.08,46.68-10.93,95.35-16.7,145.38-16.7,104.49,0,203.05,25.17,290.06,69.74-76.14,46.65-254.87,22.02-316.86-45.36Z"/></svg>